<svg width="17" height="18" viewBox="0 0 17 18" fill="none" xmlns="http://www.w3.org/2000/svg">
<path d="M15.3 18H0.9C0.661305 18 0.432387 17.9052 0.263604 17.7364C0.0948211 17.5676 0 17.3387 0 17.1V0.9C0 0.661305 0.0948211 0.432387 0.263604 0.263604C0.432387 0.0948211 0.661305 0 0.9 0H15.3C15.5387 0 15.7676 0.0948211 15.9364 0.263604C16.1052 0.432387 16.2 0.661305 16.2 0.9V17.1C16.2 17.3387 16.1052 17.5676 15.9364 17.7364C15.7676 17.9052 15.5387 18 15.3 18ZM14.4 16.2V1.8H1.8V16.2H14.4ZM3.6 3.6H7.2V7.2H3.6V3.6ZM3.6 9H12.6V10.8H3.6V9ZM3.6 12.6H12.6V14.4H3.6V12.6ZM9 4.5H12.6V6.3H9V4.5Z" fill="#4DCCC1"/>
</svg>
